<?xml version="1.0" encoding="UTF-8"?>
<svg width="33px" height="23px" viewBox="0 0 33 23" version="1.1" xmlns="http://www.w3.org/2000/svg" xmlns:xlink="http://www.w3.org/1999/xlink">
    <!-- Generator: Sketch 55.2 (78181) - https://sketchapp.com -->
    <title>Group 4 Copy 2</title>
    <desc>Created with Sketch.</desc>
    <g id="Burger-1.0" stroke="none" stroke-width="1" fill="none" fill-rule="evenodd">
        <g transform="translate(-859.000000, -1036.000000)" id="Group-4-Copy-2">
            <g transform="translate(859.000000, 1036.000000)">
                <polygon id="Fill-1" stroke="#3C3F44" stroke-width="2" stroke-linejoin="round" points="5 11 19 11 19 5 5 5"></polygon>
                <path d="M31,18 L29.949,18 C29.697,15.756 27.811,14 25.5,14 C23.189,14 21.303,15.756 21.051,18 L11.949,18 C11.697,15.756 9.811,14 7.5,14 C5.189,14 3.303,15.756 3.051,18 L2,18 L2,2 L26.08,2 L26.86,7.527 C26.963,8.212 27.403,8.787 28.037,9.065 L31,10.372 L31,18 Z M25.5,21 C24.121,21 23,19.879 23,18.5 C23,17.121 24.121,16 25.5,16 C26.879,16 28,17.121 28,18.5 C28,19.879 26.879,21 25.5,21 L25.5,21 Z M7.5,21 C6.121,21 5,19.879 5,18.5 C5,17.121 6.121,16 7.5,16 C8.879,16 10,17.121 10,18.5 C10,19.879 8.879,21 7.5,21 L7.5,21 Z M28.84,7.24 L28.061,1.719 C27.92,0.738 27.068,0 26.08,0 L2,0 C0.897,0 0,0.897 0,2 L0,18 C0,19.103 0.897,20 2,20 L3.276,20 C3.897,21.742 5.547,23 7.5,23 C9.453,23 11.103,21.742 11.724,20 L21.276,20 C21.897,21.742 23.547,23 25.5,23 C27.453,23 29.103,21.742 29.724,20 L31,20 C32.103,20 33,19.103 33,18 L33,9.067 L28.84,7.24 Z" id="Fill-2" fill="#3C3F44"></path>
            </g>
        </g>
    </g>
</svg>